<?xml version="1.0" encoding="UTF-8"?>
<svg xmlns="http://www.w3.org/2000/svg" viewBox="0 0 32 16">
  <defs>
    <style>
      .cls-1 {
        fill-rule: evenodd;
      }

      .cls-1, .cls-2 {
        fill: #fff;
      }
    </style>
  </defs>
  <g id="Walls">
    <g id="Layer_3" data-name="Layer 3">
      <rect class="cls-2" x="8" width="16" height="2"/>
      <rect class="cls-2" x="8" y="2" width="15" height="1"/>
      <rect class="cls-2" x="9" y="4" width="1" height="1"/>
      <rect class="cls-2" x="13" y="4" width="1" height="1"/>
      <rect class="cls-2" x="17" y="4" width="1" height="1"/>
      <rect class="cls-2" x="21" y="4" width="1" height="1"/>
      <rect class="cls-2" x="11" y="6" width="1" height="1"/>
      <rect class="cls-2" x="15" y="6" width="1" height="1"/>
      <rect class="cls-2" x="19" y="6" width="1" height="1"/>
      <rect class="cls-2" x="23" y="6" width="1" height="1"/>
      <rect class="cls-2" x="9" y="8" width="1" height="1"/>
      <rect class="cls-2" x="13" y="8" width="1" height="1"/>
      <rect class="cls-2" x="17" y="8" width="1" height="1"/>
      <rect class="cls-2" x="21" y="8" width="1" height="1"/>
      <rect class="cls-2" x="11" y="10" width="1" height="1"/>
      <rect class="cls-2" x="15" y="10" width="1" height="1"/>
      <rect class="cls-2" x="19" y="10" width="1" height="1"/>
      <rect class="cls-2" x="23" y="10" width="1" height="1"/>
      <rect class="cls-2" x="9" y="12" width="1" height="1"/>
      <rect class="cls-2" x="13" y="12" width="1" height="1"/>
      <rect class="cls-2" x="17" y="12" width="1" height="1"/>
      <rect class="cls-2" x="21" y="12" width="1" height="1"/>
      <rect class="cls-2" x="11" y="14" width="1" height="1"/>
      <rect class="cls-2" x="15" y="14" width="1" height="1"/>
      <rect class="cls-2" x="19" y="14" width="1" height="1"/>
      <rect class="cls-2" x="23" y="14" width="1" height="1"/>
    </g>
  </g>
  <g id="gate">
    <rect width="32" height="16"/>
    <path class="cls-1" d="M31,0H0v16h32V0h-1ZM31,15H1V1h30v14Z"/>
    <rect class="cls-2" x="2" y="2" width="3" height="13"/>
    <rect class="cls-2" x="6" y="3" width="3" height="12"/>
    <rect class="cls-2" x="10" y="5.18" width="3" height="9.82"/>
    <rect class="cls-2" x="14" y="7" width="3" height="8"/>
    <rect class="cls-2" x="18" y="9" width="3" height="6"/>
  </g>
</svg>