<?xml version="1.0" encoding="UTF-8"?>
<svg id="Walls" xmlns="http://www.w3.org/2000/svg" viewBox="0 0 16 16">
  <defs>
    <style>
      .cls-1 {
        fill: #150300;
      }

      .cls-2 {
        fill: #fff;
      }
    </style>
  </defs>
  <rect x="-16" width="32" height="16"/>
  <g id="Layer_3" data-name="Layer 3">
    <rect class="cls-2" y="3" width="6" height="1"/>
    <rect class="cls-2" x="7" y="3" width="5" height="1"/>
    <rect class="cls-2" x="13" y="3" width="2" height="1"/>
    <rect class="cls-2" x="11" y="5" width="5" height="1"/>
    <rect class="cls-2" x="4" y="5" width="6" height="1"/>
    <rect class="cls-2" x="14" y="7" width="2" height="1"/>
    <rect class="cls-2" x="3" y="7" width="5" height="1"/>
    <rect class="cls-2" y="7" width="2" height="1"/>
    <rect class="cls-2" x="6" y="9" width="4" height="1"/>
    <rect class="cls-2" y="11" width="3" height="1"/>
    <rect class="cls-2" x="4" y="11" width="5" height="1"/>
    <rect class="cls-2" x="9" y="7" width="4" height="1"/>
    <rect class="cls-2" x="1" y="9" width="4" height="1"/>
    <rect class="cls-2" x="10" y="11" width="4" height="1"/>
    <rect class="cls-2" x="15" y="11" width="1" height="1"/>
    <rect class="cls-2" x="12" y="13" width="3" height="1"/>
    <rect class="cls-2" x="7" y="13" width="3" height="1"/>
    <rect class="cls-2" y="13" width="6" height="1"/>
    <rect class="cls-1" x="15" width="1" height="1"/>
    <rect class="cls-2" x="3" y="1" width="5" height="1"/>
    <rect class="cls-2" x="9" y="1" width="4" height="1"/>
    <rect class="cls-2" x="14" y="1" width="2" height="1"/>
    <rect class="cls-2" y="1" width="2" height="1"/>
  </g>
  <rect class="cls-2" y="15" width="2" height="1"/>
  <rect class="cls-2" x="3" y="15" width="4" height="1"/>
  <rect class="cls-2" x="8" y="15" width="4" height="1"/>
  <rect class="cls-2" x="13" y="15" width="3" height="1"/>
</svg>