<?xml version="1.0" encoding="UTF-8"?>
<svg id="Walls" xmlns="http://www.w3.org/2000/svg" viewBox="0 0 16 16">
  <defs>
    <style>
      .cls-1 {
        fill: #fff;
      }
    </style>
  </defs>
  <rect width="32" height="16"/>
  <rect class="cls-1" x="14" y="1" width="2" height="1"/>
  <rect class="cls-1" x="7" y="1" width="6" height="1"/>
  <rect class="cls-1" y="1" width="5" height="1"/>
  <rect class="cls-1" x="1" y="3" width="3" height="1"/>
  <rect class="cls-1" x="6" y="3" width="5" height="1"/>
  <rect class="cls-1" y="5" width="1" height="1"/>
  <rect class="cls-1" x="11" y="5" width="5" height="1"/>
  <rect class="cls-1" x="2" y="7" width="4" height="1"/>
  <rect class="cls-1" x="2" y="5" width="8" height="1"/>
  <rect class="cls-1" x="7" y="7" width="4" height="1"/>
  <rect class="cls-1" x="12" y="7" width="4" height="1"/>
  <rect class="cls-1" y="9" width="4" height="1"/>
  <rect class="cls-1" x="5" y="9" width="3" height="1"/>
  <rect class="cls-1" x="9" y="9" width="4" height="1"/>
  <rect class="cls-1" x="14" y="9" width="2" height="1"/>
  <rect class="cls-1" y="11" width="3" height="1"/>
  <rect class="cls-1" x="4" y="11" width="6" height="1"/>
  <rect class="cls-1" x="13" y="11" width="3" height="1"/>
  <rect class="cls-1" y="13" width="4" height="1"/>
  <rect class="cls-1" x="5" y="13" width="3" height="1"/>
  <rect class="cls-1" x="11" y="13" width="4" height="1"/>
  <rect class="cls-1" y="15" width="3" height="1"/>
  <rect class="cls-1" x="4" y="15" width="6" height="1"/>
  <rect class="cls-1" x="11" y="15" width="3" height="1"/>
  <rect class="cls-1" x="15" y="15" width="1" height="1"/>
</svg>