<?xml version="1.0" encoding="UTF-8"?>
<svg id="Walls" xmlns="http://www.w3.org/2000/svg" viewBox="0 0 16 16">
  <defs>
    <style>
      .cls-1 {
        fill: gray;
      }

      .cls-2 {
        fill: #4d4d4d;
      }

      .cls-3 {
        fill: #fff;
      }

      .cls-4 {
        fill: #b3b3b3;
      }

      .cls-5 {
        fill: #333;
      }

      .cls-6 {
        fill: #1a1a1a;
      }
    </style>
  </defs>
  <rect width="16" height="16"/>
  <rect class="cls-3" x="1" y="1" width="4" height="1"/>
  <rect class="cls-3" x="6" y="1" width="5" height="1"/>
  <rect class="cls-3" x="12" y="1" width="3" height="1"/>
  <rect class="cls-4" y="3" width="3" height="1"/>
  <rect class="cls-4" x="4" y="3" width="4" height="1"/>
  <rect class="cls-4" x="9" y="3" width="3" height="1"/>
  <rect class="cls-4" x="13" y="3" width="3" height="1"/>
  <rect class="cls-1" x="1" y="5" width="4" height="1"/>
  <rect class="cls-1" x="6" y="5" width="4" height="1"/>
  <rect class="cls-1" x="11" y="5" width="4" height="1"/>
  <rect class="cls-2" y="7" width="3" height="1"/>
  <rect class="cls-2" x="4" y="7" width="4" height="1"/>
  <rect class="cls-2" x="9" y="7" width="4" height="1"/>
  <rect class="cls-5" x="11" y="9" width="5" height="1"/>
  <rect class="cls-5" x="1" y="9" width="4" height="1"/>
  <rect class="cls-6" y="11" width="4" height="1"/>
  <rect class="cls-6" x="5" y="11" width="4" height="1"/>
  <rect class="cls-6" x="10" y="11" width="5" height="1"/>
</svg>